<svg version="1.0" xmlns="http://www.w3.org/2000/svg"
 width="512.000000pt" height="512.000000pt" viewBox="0 0 512.000000 512.000000"
 preserveAspectRatio="xMidYMid meet">
<g transform="translate(0.000000,512.000000) scale(0.100000,-0.100000)"
fill="#ffffff" stroke="none">
<path d="M2443 5105 c-173 -48 -308 -191 -344 -363 -15 -76 -6 -197 19 -256
12 -25 20 -46 19 -46 -1 -1 -62 -16 -135 -35 -554 -144 -1030 -492 -1341 -984
-117 -184 -233 -463 -280 -671 -26 -120 -51 -274 -51 -322 l0 -38 -102 0
c-135 -1 -180 -19 -210 -86 -24 -56 -20 -109 12 -155 42 -58 51 -59 481 -59
l391 0 -41 -49 c-52 -62 -113 -162 -146 -240 -30 -72 -65 -211 -65 -261 0 -33
-22 -57 -315 -350 -337 -336 -345 -347 -331 -427 7 -33 49 -80 359 -391 376
-376 383 -382 464 -368 33 7 77 46 358 326 l320 319 713 80 c569 63 718 83
739 97 15 9 284 223 598 474 614 491 616 493 650 613 10 35 15 82 13 118 l-3
59 393 0 c433 0 440 1 483 62 52 72 25 179 -55 217 -34 17 -62 21 -142 21
l-100 0 -11 103 c-62 550 -338 1073 -758 1434 -268 231 -607 408 -925 482 -52
13 -100 24 -107 26 -9 3 -6 18 10 52 32 70 31 243 -2 326 -49 124 -157 231
-280 278 -73 28 -206 35 -278 14z m197 -308 c116 -61 118 -230 5 -294 -140
-80 -303 63 -241 211 39 94 145 131 236 83z m201 -653 c828 -115 1451 -700
1613 -1516 14 -67 28 -149 32 -180 l6 -58 -1932 0 -1932 0 6 58 c43 356 179
702 385 976 292 387 742 646 1255 721 130 19 431 18 567 -1z m-710 -2065 c65
-20 119 -96 119 -168 -1 -42 -35 -106 -71 -132 -34 -24 -37 -24 -329 -29 -254
-4 -299 -7 -327 -22 -90 -49 -98 -192 -15 -253 26 -19 45 -20 632 -23 333 -1
615 0 627 3 12 3 163 118 335 255 392 313 475 358 691 376 72 6 76 6 101 -19
35 -35 34 -76 -1 -109 -16 -15 -262 -214 -548 -442 -352 -282 -530 -418 -550
-421 -16 -3 -338 -39 -714 -81 -426 -47 -694 -80 -710 -89 -14 -7 -147 -135
-296 -284 -148 -149 -274 -271 -280 -271 -13 0 -425 412 -425 425 0 6 122 132
271 280 149 149 277 282 285 297 8 15 14 44 14 65 1 88 30 199 74 289 92 185
272 320 469 353 81 13 603 13 648 0z m949 -3 c-8 -7 -103 -84 -211 -170 l-196
-156 -78 0 c-69 0 -76 2 -70 18 20 49 28 156 17 221 -6 37 -14 75 -18 84 -6
16 17 17 282 17 244 0 286 -2 274 -14z"/>
</g>
</svg>
